<svg width="28" height="28" viewBox="0 0 28 28" fill="none" xmlns="http://www.w3.org/2000/svg">
<path d="M13.3212 0.0161927C5.92642 0.368289 0.0909128 6.5267 0.113346 13.9298C0.120176 16.1846 0.664526 18.3129 1.62479 20.1934L0.150444 27.35C0.0706896 27.7371 0.41984 28.0761 0.804414 27.985L7.81709 26.3236C9.61875 27.2211 11.6424 27.7394 13.7841 27.7721C21.3423 27.8875 27.6445 21.8862 27.88 14.3308C28.1326 6.23199 21.4483 -0.370859 13.3212 0.0161927ZM21.6888 21.5756C19.6351 23.6293 16.9045 24.7603 14.0001 24.7603C12.2995 24.7603 10.6714 24.3788 9.16072 23.6263L8.18412 23.1398L3.88462 24.1585L4.78964 19.7651L4.30851 18.823C3.52429 17.2871 3.12666 15.6264 3.12666 13.8868C3.12666 10.9824 4.25768 8.25189 6.3114 6.19811C8.34677 4.16274 11.1219 3.0133 14.0003 3.0133C16.9047 3.01337 19.6352 4.14439 21.6889 6.19804C23.7426 8.25176 24.8736 10.9823 24.8737 13.8866C24.8736 16.7652 23.7242 19.5403 21.6888 21.5756Z" fill="#7AD06D"/>
<path d="M20.7394 16.8982L18.0495 16.1259C17.6959 16.0243 17.315 16.1247 17.0574 16.3872L16.3996 17.0574C16.1222 17.34 15.7013 17.4308 15.3342 17.2823C14.0618 16.7673 11.3851 14.3874 10.7015 13.197C10.5043 12.8536 10.5369 12.4243 10.7791 12.111L11.3534 11.368C11.5784 11.0769 11.6258 10.686 11.477 10.3495L10.3453 7.78991C10.0743 7.17686 9.29086 6.9984 8.77906 7.43126C8.02832 8.06621 7.13757 9.03109 7.02929 10.1C6.83837 11.9847 7.64663 14.3604 10.7031 17.2131C14.2341 20.5087 17.0617 20.9441 18.9028 20.4981C19.947 20.2452 20.7815 19.2313 21.3082 18.401C21.6672 17.835 21.3837 17.0832 20.7394 16.8982Z" fill="#7AD06D"/>
</svg>
