<svg width="17" height="17" viewBox="0 0 17 17" fill="none" xmlns="http://www.w3.org/2000/svg">
<path d="M8.49973 1.37491C6.97311 1.37491 5.48077 1.82761 4.21143 2.67576C2.94208 3.5239 1.95275 4.72941 1.36854 6.13982C0.784324 7.55024 0.631467 9.10222 0.929297 10.5995C1.22713 12.0968 1.96227 13.4722 3.04175 14.5516C4.12124 15.6311 5.49659 16.3663 6.99388 16.6641C8.49117 16.9619 10.0432 16.8091 11.4536 16.2249C12.864 15.6406 14.0695 14.6513 14.9176 13.382C15.7658 12.1126 16.2185 10.6203 16.2185 9.09366C16.2161 7.04724 15.4021 5.08532 13.9551 3.63828C12.5081 2.19125 10.5461 1.37727 8.49973 1.37491ZM8.49973 15.6249C7.20797 15.6249 5.94522 15.2419 4.87116 14.5242C3.79711 13.8065 2.95998 12.7865 2.46564 11.5931C1.97131 10.3996 1.84197 9.08641 2.09398 7.81948C2.34599 6.55254 2.96803 5.38878 3.88144 4.47537C4.79485 3.56196 5.95861 2.93992 7.22555 2.68791C8.49249 2.4359 9.8057 2.56524 10.9991 3.05957C12.1926 3.55391 13.2126 4.39103 13.9303 5.46509C14.6479 6.53915 15.031 7.8019 15.031 9.09366C15.0289 10.8252 14.3402 12.4853 13.1158 13.7097C11.8914 14.9341 10.2313 15.6229 8.49973 15.6249ZM9.09348 4.70882V9.09366C9.09345 9.25112 9.03087 9.40212 8.91951 9.51344L6.72739 11.7062C6.67222 11.7613 6.60673 11.8051 6.53466 11.8349C6.46258 11.8648 6.38533 11.8802 6.30731 11.8802C6.2293 11.8802 6.15204 11.8648 6.07997 11.8349C6.00789 11.8051 5.9424 11.7613 5.88723 11.7062C5.83207 11.651 5.78831 11.5855 5.75845 11.5134C5.7286 11.4413 5.71323 11.3641 5.71323 11.2861C5.71323 11.2081 5.7286 11.1308 5.75845 11.0587C5.78831 10.9867 5.83207 10.9212 5.88723 10.866L7.90598 8.84725V4.70882C7.90598 4.55134 7.96854 4.40032 8.07989 4.28897C8.19124 4.17762 8.34226 4.11507 8.49973 4.11507C8.65721 4.11507 8.80823 4.17762 8.91958 4.28897C9.03093 4.40032 9.09348 4.55134 9.09348 4.70882ZM16.6745 4.12991C16.5737 4.25081 16.429 4.32673 16.2722 4.34098C16.1154 4.35523 15.9594 4.30665 15.8385 4.20591L12.276 1.23716C12.1593 1.1351 12.0872 0.991466 12.075 0.83694C12.0628 0.682415 12.1116 0.529253 12.2108 0.410175C12.31 0.291098 12.4519 0.215546 12.6061 0.199661C12.7603 0.183776 12.9146 0.228817 13.036 0.325162L16.5985 3.29391C16.7194 3.39472 16.7953 3.53941 16.8096 3.69618C16.8238 3.85294 16.7752 4.00895 16.6745 4.12991ZM0.780983 4.34366C0.659002 4.34361 0.539998 4.30598 0.440155 4.23591C0.340311 4.16583 0.264473 4.06671 0.222953 3.95201C0.181434 3.83731 0.176248 3.71261 0.208102 3.59486C0.239955 3.47711 0.307302 3.37203 0.400983 3.29391L3.96348 0.325162C4.08491 0.228817 4.2392 0.183776 4.39338 0.199661C4.54757 0.215546 4.68944 0.291098 4.78867 0.410175C4.8879 0.529253 4.93663 0.682415 4.92445 0.83694C4.91227 0.991466 4.84015 1.1351 4.72348 1.23716L1.16098 4.20591C1.05432 4.29486 0.919862 4.3436 0.780983 4.34366Z" fill="#43AAFF"/>
</svg>
