<svg width="28" height="28" viewBox="0 0 28 28" fill="none" xmlns="http://www.w3.org/2000/svg">
<path d="M13.2079 0.0161927C5.81314 0.368289 -0.0223685 6.5267 6.44603e-05 13.9298C0.00689479 16.1847 0.551245 18.3129 1.51151 20.1934L0.0371625 27.35C-0.0425916 27.7371 0.306559 28.0761 0.691133 27.985L7.7038 26.3236C9.50547 27.2211 11.5291 27.7394 13.6708 27.7721C21.229 27.8875 27.5312 21.8862 27.7668 14.3308C28.0193 6.23199 21.3351 -0.370859 13.2079 0.0161927ZM21.5755 21.5756C19.5218 23.6293 16.7912 24.7603 13.8869 24.7603C12.1862 24.7603 10.5581 24.3788 9.04744 23.6263L8.07083 23.1398L3.77134 24.1585L4.67636 19.7651L4.19523 18.823C3.41101 17.2871 3.01338 15.6264 3.01338 13.8868C3.01338 10.9824 4.1444 8.25189 6.19812 6.19811C8.23349 4.16274 11.0086 3.0133 13.8871 3.0133C16.7914 3.01337 19.5219 4.14439 21.5756 6.19804C23.6293 8.25176 24.7603 10.9823 24.7604 13.8866C24.7603 16.7652 23.6109 19.5403 21.5755 21.5756Z" fill="white"/>
<path d="M20.6261 16.8985L17.9362 16.1261C17.5826 16.0246 17.2018 16.1249 16.9441 16.3875L16.2863 17.0576C16.0089 17.3402 15.5881 17.431 15.221 17.2825C13.9485 16.7676 11.2718 14.3877 10.5882 13.1972C10.391 12.8538 10.4236 12.4245 10.6658 12.1112L11.2401 11.3682C11.4651 11.0772 11.5126 10.6862 11.3638 10.3497L10.2321 7.79016C9.961 7.1771 9.17758 6.99864 8.66578 7.4315C7.91504 8.06645 7.02429 9.03134 6.91601 10.1003C6.72509 11.9849 7.53335 14.3607 10.5898 17.2133C14.1208 20.509 16.9484 20.9444 18.7895 20.4984C19.8337 20.2455 20.6682 19.2315 21.1949 18.4013C21.5539 17.8352 21.2704 17.0835 20.6261 16.8985Z" fill="white"/>
</svg>
